<?xml version="1.0" encoding="utf-8"?>
<!-- Generator: Adobe Illustrator 25.0.0, SVG Export Plug-In . SVG Version: 6.00 Build 0)  -->
<svg version="1.1" id="Layer_1" xmlns="http://www.w3.org/2000/svg" xmlns:xlink="http://www.w3.org/1999/xlink" x="0px" y="0px"
	 viewBox="0 0 403.25 427.91" style="enable-background:new 0 0 403.25 427.91;" xml:space="preserve">
<style type="text/css">
	.st0{fill:#053D5D;}
	.st1{fill:#86C542;}
</style>
<g>
	<path class="st0" d="M358.92,342.62c-3.57,3.8-7.56,7.17-11.39,10.67c-1.91,1.76-4.03,3.28-6.03,4.93
		c-2.06,1.58-3.98,3.33-6.15,4.75c-16.78,12.11-35,22.2-54.51,28.57c-19.38,6.57-39.64,10.49-59.98,10.71
		c-10.16,0.25-20.3-0.34-30.35-1.52c-10.05-1.25-19.94-3.41-29.64-6.17c-9.71-2.73-19.11-6.45-28.21-10.7
		c-4.57-2.08-9-4.48-13.43-6.84l-6.48-3.83c-2.17-1.27-4.21-2.73-6.32-4.08c-8.32-5.61-16.26-11.78-23.62-18.59
		c-7.33-6.83-14.14-14.2-20.38-22.01c-24.92-31.3-39.88-70.24-41.93-110.11c-2.37-39.89,8.1-80.27,29.48-114.08
		c10.52-17.02,23.93-32.22,39.19-45.26c7.69-6.45,15.9-12.27,24.46-17.55c8.52-5.35,17.55-9.87,26.85-13.76
		c37.2-15.53,79.56-19.29,119.53-10.32c40.09,8.66,77.45,30.43,106.08,61.21c-25.19-33.74-62.23-59.04-103.62-70.86
		c-5.14-1.65-10.44-2.6-15.69-3.85l-7.98-1.36l-4-0.65l-4.02-0.45c-2.68-0.28-5.37-0.63-8.06-0.85l-8.1-0.44
		c-2.7-0.2-5.41-0.17-8.11-0.17c-2.71,0.03-5.42-0.07-8.13,0.12c-10.85,0.25-21.65,1.81-32.32,3.89c-10.68,2.09-21.18,5.18-31.39,9
		s-20.2,8.37-29.68,13.83c-9.49,5.45-18.55,11.64-27.11,18.48C60.9,59.17,45.83,75.48,33.82,93.93
		c-12.16,18.34-21.04,38.81-26.86,60.06c-2.78,10.67-4.73,21.54-5.92,32.5c-1.06,10.97-1.29,22.01-0.78,33.01
		c1.33,21.99,5.9,43.84,13.98,64.37c3.96,10.28,8.83,20.21,14.43,29.69c5.61,9.46,11.79,18.62,18.89,27.02
		c28,33.88,66.76,58.76,109.2,69.22c34.11,8.7,70.21,8.16,103.78-0.93l22.2,19.06l7.41-29.6l1.57-0.74l7.28-3.45l7.05-3.87
		c2.36-1.28,4.7-2.56,6.93-4.05l6.78-4.29c2.25-1.45,4.36-3.1,6.54-4.64c4.42-3,8.43-6.54,12.54-9.93
		c16.16-13.88,29.82-30.42,40.64-48.42C373,327.2,366.48,335.4,358.92,342.62z"/>
	<path class="st0" d="M333.65,137.42c-6.47,0-12.26,2.84-16.25,7.32l-19.66-8.05c0.02-0.37,0.06-0.73,0.06-1.11
		c0-12.02-9.74-21.76-21.76-21.76c-12.02,0-21.76,9.74-21.76,21.76c0,4.98,1.69,9.56,4.51,13.23l-36.41,55.75
		c-1.66-0.41-3.39-0.65-5.18-0.65c-4.61,0-8.87,1.44-12.39,3.88l-23.42-16.97c0.59-1.97,0.91-4.05,0.91-6.22
		c0-12.02-9.74-21.76-21.76-21.76c-12.02,0-21.76,9.74-21.76,21.76c0,2.8,0.55,5.48,1.51,7.94l-27.53,23.73
		c-3.17-1.81-6.84-2.86-10.76-2.86c-12.02,0-21.76,9.74-21.76,21.76c0,12.02,9.74,21.76,21.76,21.76c12.02,0,21.76-9.74,21.76-21.76
		c0-2.84-0.56-5.54-1.55-8.03l27.48-23.69c3.19,1.84,6.89,2.91,10.84,2.91c4.61,0,8.87-1.44,12.39-3.88l23.42,16.97
		c-0.59,1.97-0.91,4.05-0.91,6.22c0,12.02,9.74,21.76,21.76,21.76c12.02,0,21.76-9.74,21.76-21.76c0-4.98-1.69-9.56-4.51-13.23
		l36.41-55.75c1.66,0.41,3.39,0.65,5.18,0.65c6.47,0,12.26-2.84,16.25-7.32l19.66,8.05c-0.02,0.37-0.06,0.73-0.06,1.11
		c0,12.02,9.74,21.76,21.76,21.76c12.02,0,21.76-9.74,21.76-21.76C355.41,147.16,345.67,137.42,333.65,137.42z"/>
	<path class="st1" d="M401.59,183.28c-4.81-33.95-19.65-66.02-41.94-90.69c17.8,28.01,28.47,59.81,29.69,91.87
		c0.39,7.99,0.32,16-0.51,23.91l-1.4,11.83c-0.13,0.98-0.2,1.97-0.37,2.94l-0.65,2.9l-1.29,5.8c-1.39,7.79-4.2,15.2-6.47,22.71
		c-1.33,3.7-3.06,7.24-4.55,10.86l-2.31,5.4l-2.84,5.15c-1.93,3.4-3.69,6.9-5.74,10.22l-6.63,9.65c-1.27,2.05-2.79,3.91-4.34,5.76
		V176.38c-4.64,5-11.24,8.16-18.58,8.16c-7.62,0-14.46-3.38-19.11-8.71V337.1c-2.93,1.98-5.75,4.13-8.82,5.86
		c-3.72,2.23-7.54,4.27-11.4,6.21V154.74l-1.16-0.48c-4.66,4.27-10.77,6.68-17.11,6.68c-1.15,0-2.32-0.09-3.49-0.25l-15.92,24.39
		v177.88c-1.49,0.33-2.97,0.66-4.46,1.01l-5.63,1.27l-5.73,0.7c-1.47,0.17-2.94,0.36-4.41,0.55V242.2
		c-4.65,5.4-11.52,8.84-19.19,8.84c-7.3,0-13.87-3.12-18.5-8.07V366.6c-1.32-0.1-2.65-0.19-3.96-0.38
		c-5.42-1.03-10.9-1.78-16.27-3.01V210.95l-5.69-4.13c-3.74,2.07-7.92,3.15-12.23,3.15c-3.55,0-7.07-0.76-10.32-2.21l-9.45,8.15
		v133.6c-0.3-0.15-0.6-0.3-0.9-0.44l-5.19-2.58c-1.72-0.87-3.3-2-4.96-2.99c-3.05-1.92-6.14-3.78-9.18-5.72v-85.36
		c-4.63,4.98-11.22,8.12-18.54,8.12c-7.65,0-14.5-3.42-19.15-8.79v50.75c-1.43-1.91-2.83-3.84-4.3-5.72l-3.55-4.66l-3.07-4.98
		c-2-3.35-4.22-6.59-6.07-10.04c-7.35-13.83-12.78-28.66-16.53-44.01c-3.2-15.42-5.19-31.36-4.4-47.37
		c1-32.06,11.34-63.95,28.96-92.09c-22.16,24.8-36.68,57.03-41.29,90.99c-0.62,4.24-0.96,8.52-1.23,12.8l-0.18,12.9
		c0.02,2.15-0.16,4.32,0.03,6.47l0.56,6.45c0.45,4.29,0.59,8.65,1.32,12.91c1.6,8.51,3.04,17.12,5.93,25.34
		c2.23,8.45,5.91,16.36,9.26,24.44c7.73,15.63,16.94,30.75,28.79,43.79l2.11,2.53l2.32,2.34l4.68,4.65
		c3.13,3.09,6.19,6.29,9.71,8.94l10.29,8.32c3.61,2.51,7.33,4.9,11.01,7.35c1.86,1.18,3.65,2.5,5.58,3.57l5.87,3.09
		c3.96,1.97,7.75,4.28,11.85,5.94l12.31,4.97l3.08,1.22l3.18,0.94l6.38,1.87c8.43,2.81,17.24,3.95,25.95,5.59
		c4.37,0.65,8.81,0.79,13.21,1.2l6.62,0.51c2.2,0.19,4.42-0.02,6.64-0.03l13.27-0.39c4.41-0.38,8.79-1.08,13.19-1.61l6.58-0.87
		l6.48-1.48c4.3-1.04,8.65-1.94,12.91-3.13c8.33-3,16.88-5.44,24.77-9.49l6.02-2.79l3-1.4l2.87-1.66l11.4-6.75
		c29.54-19.26,53.84-46.59,68.15-78.55l2.79-5.92l2.24-6.15c1.43-4.12,3.09-8.15,4.31-12.33c2.08-8.46,4.65-16.78,5.43-25.46
		l0.88-6.43l0.44-3.21c0.1-1.07,0.1-2.16,0.15-3.24l0.46-12.93C403.37,200.37,402.83,191.76,401.59,183.28z"/>
</g>
</svg>
