<?xml version="1.0" encoding="utf-8"?>
<!-- Generator: Adobe Illustrator 25.0.0, SVG Export Plug-In . SVG Version: 6.00 Build 0)  -->
<svg version="1.1" id="Layer_1" xmlns="http://www.w3.org/2000/svg" xmlns:xlink="http://www.w3.org/1999/xlink" x="0px" y="0px"
	 viewBox="0 0 211.25 224.17" style="enable-background:new 0 0 211.25 224.17;" xml:space="preserve">
<style type="text/css">
	.st0{fill:#053D5D;}
	.st1{fill:#86C542;}
	.st2{fill:none;stroke:#565656;stroke-miterlimit:10;}
	.st3{fill:none;stroke:#000000;stroke-miterlimit:10;}
	.st4{fill:#FFFFFF;}
</style>
<g>
	<path class="st0" d="M188.03,179.49c-1.87,1.99-3.96,3.75-5.97,5.59c-1,0.92-2.11,1.72-3.16,2.58c-1.08,0.83-2.08,1.74-3.22,2.49
		c-8.79,6.35-18.34,11.63-28.56,14.97c-10.15,3.44-20.76,5.49-31.42,5.61c-5.32,0.13-10.64-0.18-15.9-0.8
		c-5.26-0.66-10.45-1.79-15.52-3.23c-5.09-1.43-10.01-3.38-14.78-5.61c-2.4-1.09-4.71-2.34-7.03-3.59l-3.4-2.01
		c-1.13-0.66-2.21-1.43-3.31-2.14c-4.36-2.94-8.52-6.17-12.37-9.74c-3.84-3.58-7.41-7.44-10.68-11.53
		c-13.05-16.4-20.89-36.8-21.96-57.68c-1.24-20.9,4.25-42.05,15.44-59.76c5.51-8.92,12.54-16.88,20.53-23.71
		c4.03-3.38,8.33-6.43,12.81-9.19c4.46-2.8,9.2-5.17,14.07-7.21c19.49-8.14,41.68-10.11,62.62-5.41c21,4.54,40.57,15.94,55.57,32.07
		c-13.19-17.68-32.6-30.93-54.28-37.12c-2.69-0.86-5.47-1.36-8.22-2.02l-4.18-0.71L123.01,1l-2.11-0.23
		c-1.41-0.15-2.81-0.33-4.22-0.45l-4.24-0.23C111.02-0.01,109.6,0,108.19,0c-1.42,0.01-2.84-0.04-4.26,0.06
		C98.24,0.2,92.59,1.01,87,2.1C81.4,3.2,75.91,4.81,70.55,6.82S59.97,11.2,55,14.06c-4.97,2.85-9.72,6.1-14.2,9.68
		C31.9,31,24.01,39.54,17.72,49.21C11.35,58.82,6.7,69.54,3.65,80.67c-1.45,5.59-2.48,11.28-3.1,17.03
		c-0.56,5.75-0.68,11.53-0.41,17.29c0.7,11.52,3.09,22.97,7.32,33.72c2.08,5.39,4.63,10.59,7.56,15.55
		c2.94,4.96,6.17,9.75,9.9,14.15c14.67,17.75,34.97,30.78,57.21,36.26c17.87,4.56,36.78,4.27,54.37-0.49l11.63,9.98l3.88-15.5
		l0.82-0.39l3.81-1.81l3.7-2.03c1.23-0.67,2.46-1.34,3.63-2.12l3.55-2.25c1.18-0.76,2.28-1.62,3.42-2.43
		c2.31-1.57,4.42-3.43,6.57-5.2c8.46-7.27,15.62-15.94,21.29-25.37C195.4,171.41,191.99,175.71,188.03,179.49z"/>
	<path class="st0" d="M174.79,71.99c-3.39,0-6.42,1.49-8.51,3.83l-10.3-4.22c0.01-0.19,0.03-0.38,0.03-0.58
		c0-6.3-5.1-11.4-11.4-11.4c-6.29,0-11.4,5.1-11.4,11.4c0,2.61,0.89,5.01,2.36,6.93l-19.07,29.21c-0.87-0.21-1.78-0.34-2.72-0.34
		c-2.41,0-4.65,0.75-6.49,2.03l-12.27-8.89c0.31-1.03,0.48-2.12,0.48-3.26c0-6.29-5.1-11.4-11.4-11.4c-6.29,0-11.4,5.1-11.4,11.4
		c0,1.47,0.29,2.87,0.79,4.16L59.08,113.3c-1.66-0.95-3.58-1.5-5.64-1.5c-6.3,0-11.4,5.1-11.4,11.4c0,6.29,5.1,11.4,11.4,11.4
		c6.29,0,11.4-5.1,11.4-11.4c0-1.49-0.29-2.9-0.81-4.21l14.4-12.41c1.67,0.96,3.61,1.52,5.68,1.52c2.41,0,4.65-0.75,6.49-2.03
		l12.27,8.89c-0.31,1.03-0.48,2.12-0.48,3.26c0,6.3,5.1,11.4,11.4,11.4s11.4-5.1,11.4-11.4c0-2.61-0.89-5.01-2.36-6.93l19.07-29.21
		c0.87,0.21,1.78,0.34,2.72,0.34c3.39,0,6.42-1.49,8.51-3.83l10.3,4.22c-0.01,0.19-0.03,0.38-0.03,0.58c0,6.29,5.1,11.4,11.4,11.4
		c6.3,0,11.4-5.1,11.4-11.4C186.19,77.09,181.09,71.99,174.79,71.99z"/>
	<path class="st1" d="M210.38,96.01c-2.52-17.78-10.3-34.58-21.97-47.51c9.32,14.67,14.91,31.33,15.55,48.13
		c0.2,4.19,0.17,8.38-0.27,12.53l-0.73,6.2c-0.07,0.51-0.1,1.03-0.2,1.54l-0.34,1.52l-0.68,3.04c-0.73,4.08-2.2,7.96-3.39,11.89
		c-0.69,1.94-1.6,3.79-2.39,5.69l-1.21,2.83l-1.49,2.7c-1.01,1.78-1.93,3.61-3.01,5.35l-3.47,5.05c-0.67,1.07-1.46,2.05-2.27,3.02
		V92.4c-2.43,2.62-5.89,4.28-9.74,4.28c-3.99,0-7.57-1.77-10.01-4.56v84.48c-1.53,1.04-3.01,2.16-4.62,3.07
		c-1.95,1.17-3.95,2.24-5.97,3.25V81.06l-0.61-0.25c-2.44,2.24-5.64,3.5-8.97,3.5c-0.6,0-1.21-0.04-1.83-0.13l-8.34,12.77v93.18
		c-0.78,0.17-1.56,0.35-2.33,0.53l-2.95,0.67l-3,0.37c-0.77,0.09-1.54,0.19-2.31,0.29v-65.11c-2.44,2.83-6.04,4.63-10.06,4.63
		c-3.82,0-7.26-1.63-9.69-4.23v64.77c-0.69-0.05-1.39-0.1-2.07-0.2c-2.84-0.54-5.71-0.93-8.52-1.58v-79.76l-2.98-2.16
		c-1.96,1.08-4.15,1.65-6.41,1.65c-1.86,0-3.7-0.4-5.4-1.16l-4.95,4.27v69.99c-0.16-0.08-0.31-0.16-0.47-0.23l-2.72-1.35
		c-0.9-0.46-1.73-1.05-2.6-1.56c-1.6-1-3.22-1.98-4.81-3v-44.72c-2.43,2.61-5.88,4.25-9.71,4.25c-4.01,0-7.6-1.79-10.03-4.6v26.58
		c-0.75-1-1.48-2.01-2.25-3l-1.86-2.44l-1.61-2.61c-1.05-1.75-2.21-3.45-3.18-5.26c-3.85-7.25-6.69-15.01-8.66-23.06
		c-1.67-8.08-2.72-16.43-2.3-24.82c0.53-16.8,5.94-33.5,15.17-48.24C27.11,62.04,19.5,78.92,17.09,96.72
		c-0.33,2.22-0.5,4.46-0.64,6.71l-0.1,6.76c0.01,1.13-0.08,2.26,0.01,3.39l0.29,3.38c0.24,2.25,0.31,4.53,0.69,6.76
		c0.84,4.46,1.59,8.97,3.11,13.28c1.17,4.43,3.1,8.57,4.85,12.8c4.05,8.19,8.87,16.11,15.08,22.94l1.11,1.33l1.21,1.23l2.45,2.44
		c1.64,1.62,3.24,3.29,5.09,4.68l5.39,4.36c1.89,1.32,3.84,2.57,5.77,3.85c0.97,0.62,1.91,1.31,2.92,1.87l3.07,1.62
		c2.07,1.03,4.06,2.24,6.21,3.11l6.45,2.6l1.62,0.64l1.67,0.49l3.34,0.98c4.42,1.47,9.03,2.07,13.59,2.93
		c2.29,0.34,4.61,0.41,6.92,0.63l3.47,0.27c1.16,0.1,2.32-0.01,3.48-0.01l6.95-0.2c2.31-0.2,4.61-0.56,6.91-0.85l3.45-0.46
		l3.39-0.77c2.25-0.54,4.53-1.02,6.76-1.64c4.37-1.57,8.84-2.85,12.98-4.97l3.15-1.46l1.57-0.73l1.5-0.87l5.97-3.54
		c15.48-10.09,28.2-24.41,35.7-41.15l1.46-3.1l1.17-3.22c0.75-2.16,1.62-4.27,2.26-6.46c1.09-4.43,2.43-8.79,2.85-13.34l0.46-3.37
		l0.23-1.68c0.05-0.56,0.05-1.13,0.08-1.7l0.24-6.77C211.31,104.97,211.03,100.46,210.38,96.01z"/>
</g>
</svg>
