<?xml version="1.0" encoding="utf-8"?>
<!-- Generator: Adobe Illustrator 25.0.0, SVG Export Plug-In . SVG Version: 6.00 Build 0)  -->
<svg version="1.1" id="Layer_1" xmlns="http://www.w3.org/2000/svg" xmlns:xlink="http://www.w3.org/1999/xlink" x="0px" y="0px"
	 viewBox="0 0 854.47 230.71" style="enable-background:new 0 0 854.47 230.71;" xml:space="preserve">
<style type="text/css">
	.st0{fill:#053D5D;}
	.st1{fill:#86C542;}
</style>
<g>
	<g>
		<path class="st0" d="M193.51,184.73c-1.92,2.05-4.08,3.86-6.14,5.75c-1.03,0.95-2.17,1.77-3.25,2.66
			c-1.11,0.85-2.14,1.79-3.31,2.56c-9.05,6.53-18.87,11.97-29.39,15.4c-10.45,3.54-21.37,5.66-32.34,5.78
			c-5.48,0.13-10.95-0.18-16.36-0.82c-5.42-0.68-10.75-1.84-15.98-3.33c-5.24-1.47-10.3-3.48-15.21-5.77
			c-2.47-1.12-4.85-2.41-7.24-3.69l-3.5-2.07c-1.17-0.68-2.27-1.47-3.41-2.2c-4.48-3.03-8.77-6.35-12.73-10.02
			c-3.95-3.69-7.63-7.65-10.99-11.87c-13.43-16.88-21.5-37.87-22.61-59.37c-1.28-21.51,4.37-43.28,15.89-61.51
			c5.67-9.18,12.9-17.37,21.13-24.4c4.15-3.48,8.57-6.62,13.19-9.46c4.59-2.88,9.46-5.32,14.48-7.42
			c20.06-8.37,42.9-10.4,64.45-5.56c21.61,4.67,41.76,16.41,57.19,33c-13.58-18.19-33.55-31.83-55.87-38.21
			c-2.77-0.89-5.63-1.4-8.46-2.08l-4.3-0.73l-2.15-0.35l-2.17-0.24c-1.45-0.15-2.89-0.34-4.35-0.46l-4.37-0.23
			C114.26-0.01,112.8,0,111.34,0c-1.46,0.02-2.92-0.04-4.38,0.07c-5.85,0.13-11.67,0.97-17.42,2.1c-5.76,1.13-11.42,2.79-16.93,4.85
			s-10.89,4.51-16,7.46c-5.12,2.94-10,6.28-14.62,9.96c-9.16,7.46-17.28,16.26-23.75,26.2C11.68,60.53,6.89,71.57,3.75,83.02
			c-1.5,5.75-2.55,11.61-3.19,17.52c-0.57,5.92-0.7,11.86-0.42,17.8c0.72,11.86,3.18,23.64,7.54,34.7
			c2.14,5.54,4.76,10.9,7.78,16.01c3.02,5.1,6.35,10.04,10.19,14.57c15.09,18.27,35.99,31.68,58.88,37.32
			c18.39,4.69,37.85,4.4,55.95-0.5l11.97,10.27l4-15.96l0.85-0.4l3.92-1.86l3.8-2.09c1.27-0.69,2.54-1.38,3.74-2.19l3.65-2.32
			c1.21-0.78,2.35-1.67,3.52-2.5c2.38-1.62,4.55-3.53,6.76-5.35c8.71-7.49,16.08-16.4,21.91-26.11
			C201.11,176.41,197.59,180.83,193.51,184.73z"/>
		<path class="st0" d="M179.89,74.09c-3.49,0-6.61,1.53-8.76,3.95l-10.6-4.34c0.01-0.2,0.03-0.4,0.03-0.6
			c0-6.48-5.25-11.73-11.73-11.73c-6.48,0-11.73,5.25-11.73,11.73c0,2.69,0.91,5.16,2.43,7.13l-19.63,30.06
			c-0.9-0.22-1.83-0.35-2.79-0.35c-2.48,0-4.78,0.78-6.68,2.09l-12.63-9.15c0.32-1.06,0.49-2.19,0.49-3.35
			c0-6.48-5.25-11.73-11.73-11.73c-6.48,0-11.73,5.25-11.73,11.73c0,1.51,0.3,2.95,0.82,4.28L60.8,116.61
			c-1.71-0.98-3.69-1.54-5.8-1.54c-6.48,0-11.73,5.25-11.73,11.73c0,6.48,5.25,11.73,11.73,11.73c6.48,0,11.73-5.25,11.73-11.73
			c0-1.53-0.3-2.99-0.83-4.33l14.82-12.77c1.72,0.99,3.71,1.57,5.84,1.57c2.48,0,4.78-0.78,6.68-2.09l12.63,9.15
			c-0.32,1.06-0.49,2.19-0.49,3.35c0,6.48,5.25,11.73,11.73,11.73c6.48,0,11.73-5.25,11.73-11.73c0-2.69-0.91-5.16-2.43-7.13
			l19.63-30.06c0.9,0.22,1.83,0.35,2.8,0.35c3.49,0,6.61-1.53,8.76-3.95l10.6,4.34c-0.01,0.2-0.03,0.39-0.03,0.6
			c0,6.48,5.25,11.73,11.73,11.73c6.48,0,11.73-5.25,11.73-11.73C191.62,79.34,186.37,74.09,179.89,74.09z"/>
		<path class="st1" d="M216.52,98.82c-2.6-18.3-10.6-35.59-22.61-48.9c9.6,15.1,15.35,32.25,16.01,49.53
			c0.21,4.31,0.17,8.62-0.27,12.89l-0.75,6.38c-0.07,0.53-0.11,1.06-0.2,1.59l-0.35,1.57l-0.7,3.12c-0.75,4.2-2.26,8.19-3.49,12.24
			c-0.71,1.99-1.65,3.9-2.46,5.86l-1.25,2.91l-1.53,2.78c-1.04,1.84-1.99,3.72-3.1,5.51l-3.58,5.2c-0.69,1.1-1.51,2.11-2.34,3.11
			V95.09c-2.5,2.7-6.06,4.4-10.02,4.4c-4.11,0-7.8-1.82-10.3-4.7v86.95c-1.58,1.07-3.1,2.23-4.76,3.16c-2.01,1.2-4.06,2.3-6.15,3.35
			V83.43l-0.63-0.26c-2.51,2.3-5.8,3.6-9.23,3.6c-0.62,0-1.25-0.05-1.88-0.14l-8.59,13.15v95.9c-0.8,0.18-1.6,0.36-2.4,0.55
			l-3.04,0.69l-3.09,0.38c-0.79,0.09-1.58,0.2-2.38,0.3v-67.01c-2.51,2.91-6.21,4.76-10.35,4.76c-3.94,0-7.48-1.68-9.97-4.35v66.66
			c-0.71-0.06-1.43-0.1-2.13-0.21c-2.92-0.55-5.88-0.96-8.77-1.62v-82.09l-3.07-2.23c-2.02,1.12-4.27,1.7-6.6,1.7
			c-1.92,0-3.81-0.41-5.56-1.19l-5.1,4.39v72.03c-0.16-0.08-0.32-0.16-0.48-0.24l-2.8-1.39c-0.93-0.47-1.78-1.08-2.67-1.61
			c-1.64-1.03-3.31-2.04-4.95-3.08V136.1c-2.5,2.68-6.05,4.38-10,4.38c-4.12,0-7.82-1.84-10.33-4.74v27.36
			c-0.77-1.03-1.52-2.07-2.32-3.08l-1.91-2.51l-1.65-2.68c-1.08-1.8-2.27-3.55-3.27-5.41c-3.96-7.46-6.89-15.45-8.91-23.73
			c-1.72-8.32-2.8-16.91-2.37-25.54c0.54-17.29,6.11-34.48,15.61-49.65C27.9,63.85,20.07,81.23,17.59,99.54
			c-0.34,2.29-0.52,4.59-0.66,6.9l-0.1,6.95c0.01,1.16-0.09,2.33,0.02,3.49l0.3,3.48c0.24,2.31,0.32,4.66,0.71,6.96
			c0.86,4.59,1.64,9.23,3.2,13.66c1.2,4.56,3.19,8.82,4.99,13.18c4.17,8.43,9.13,16.58,15.52,23.61l1.14,1.37l1.25,1.26l2.52,2.51
			c1.69,1.67,3.33,3.39,5.23,4.82l5.55,4.48c1.95,1.36,3.95,2.64,5.93,3.96c1,0.64,1.97,1.35,3.01,1.92l3.16,1.66
			c2.13,1.06,4.18,2.31,6.39,3.2l6.64,2.68l1.66,0.66l1.72,0.51l3.44,1.01c4.54,1.52,9.3,2.13,13.99,3.01
			c2.36,0.35,4.75,0.43,7.12,0.64l3.57,0.27c1.19,0.1,2.39-0.01,3.58-0.02l7.16-0.21c2.38-0.2,4.74-0.58,7.11-0.87l3.55-0.47
			l3.49-0.8c2.32-0.56,4.66-1.05,6.96-1.69c4.49-1.62,9.1-2.93,13.36-5.12l3.25-1.5l1.62-0.75l1.55-0.89l6.15-3.64
			c15.93-10.39,29.03-25.12,36.74-42.35l1.51-3.19l1.21-3.32c0.77-2.22,1.66-4.4,2.32-6.65c1.12-4.56,2.5-9.05,2.93-13.72l0.48-3.47
			l0.24-1.73c0.05-0.58,0.05-1.16,0.08-1.75l0.25-6.97C217.48,108.03,217.19,103.39,216.52,98.82z"/>
	</g>
	<g>
		<path class="st0" d="M258.57,52.63v17.56h30.75v12.34h-30.75v24.2H243.2V40.28h50.21v12.34H258.57z"/>
		<path class="st0" d="M303.84,40.28h15.38V94.2h33.31v12.53h-48.69V40.28z"/>
		<path class="st0" d="M412.6,94.39v12.34h-51.44V40.28h50.21v12.34h-34.93v14.42h30.85v11.96h-30.85v15.38H412.6z"/>
		<path class="st0" d="M466.03,106.73l-16.04-23.07l-15.76,23.07h-17.65l24.58-33.79l-23.35-32.65h17.47l15.28,21.55l15-21.55h16.61
			l-23.16,32.08l24.77,34.36H466.03z"/>
		<path class="st0" d="M489.85,40.28h15.38v66.44h-15.38V40.28z"/>
		<path class="st0" d="M565.87,72.46h14.05v26.96c-7.31,5.5-17.37,8.44-26.86,8.44c-20.88,0-36.26-14.33-36.26-34.36
			s15.38-34.36,36.54-34.36c11.67,0,21.36,3.99,27.81,11.48l-9.87,9.11c-4.84-5.13-10.44-7.5-17.18-7.5
			c-12.91,0-21.74,8.64-21.74,21.26c0,12.43,8.83,21.26,21.55,21.26c4.18,0,8.07-0.76,11.96-2.85V72.46z"/>
		<path class="st0" d="M594.15,40.28h15.38V94.2h33.31v12.53h-48.69V40.28z"/>
		<path class="st0" d="M646.15,73.51c0-19.74,15.38-34.36,36.35-34.36c20.88,0,36.35,14.52,36.35,34.36s-15.47,34.36-36.35,34.36
			C661.53,107.86,646.15,93.25,646.15,73.51z M703.29,73.51c0-12.63-8.92-21.26-20.79-21.26c-11.86,0-20.79,8.64-20.79,21.26
			c0,12.62,8.92,21.26,20.79,21.26C694.37,94.77,703.29,86.13,703.29,73.51z"/>
		<path class="st0" d="M791.36,88.6c0,11.48-9.11,18.13-26.58,18.13h-34.36V40.28h32.46c16.61,0,25.15,6.93,25.15,17.27
			c0,6.65-3.42,11.77-8.83,14.62C786.61,74.55,791.36,80.24,791.36,88.6z M745.7,51.87v15.66h15.28c7.5,0,11.58-2.66,11.58-7.88
			s-4.08-7.78-11.58-7.78H745.7z M775.89,86.98c0-5.6-4.27-8.26-12.24-8.26H745.7v16.42h17.94
			C771.62,95.15,775.89,92.68,775.89,86.98z"/>
		<path class="st0" d="M854.47,94.39v12.34h-51.44V40.28h50.21v12.34h-34.93v14.42h30.85v11.96h-30.85v15.38H854.47z"/>
	</g>
	<g>
		<path class="st1" d="M295.68,188.82h-30.85l-5.89,14.24H243.2l29.61-66.44H288l29.71,66.44h-16.14L295.68,188.82z M290.84,177.14
			l-10.54-25.44l-10.54,25.44H290.84z"/>
		<path class="st1" d="M324.62,136.61h30.18c21.74,0,36.64,13.1,36.64,33.22s-14.9,33.22-36.64,33.22h-30.18V136.61z M354.05,190.43
			c13.19,0,21.83-7.88,21.83-20.59c0-12.72-8.64-20.6-21.83-20.6H340v41.19H354.05z"/>
		<path class="st1" d="M464.71,136.61l-28.76,66.44h-15.19l-28.66-66.44h16.61l20.22,47.46l20.5-47.46H464.71z"/>
		<path class="st1" d="M470.2,136.61h15.38v66.44H470.2V136.61z"/>
		<path class="st1" d="M496.11,196.5l5.22-11.58c5.6,4.08,13.95,6.93,21.92,6.93c9.11,0,12.81-3.04,12.81-7.12
			c0-12.43-38.63-3.89-38.63-28.57c0-11.29,9.11-20.69,28-20.69c8.35,0,16.89,1.99,23.06,5.89l-4.74,11.67
			c-6.17-3.51-12.53-5.22-18.41-5.22c-9.11,0-12.63,3.42-12.63,7.59c0,12.24,38.63,3.8,38.63,28.19c0,11.1-9.21,20.59-28.19,20.59
			C512.62,204.19,501.99,201.06,496.11,196.5z"/>
		<path class="st1" d="M557.7,169.83c0-19.74,15.38-34.36,36.35-34.36c20.88,0,36.35,14.52,36.35,34.36s-15.47,34.36-36.35,34.36
			C573.07,204.19,557.7,189.57,557.7,169.83z M614.84,169.83c0-12.63-8.92-21.26-20.79-21.26s-20.79,8.64-20.79,21.26
			c0,12.62,8.92,21.26,20.79,21.26S614.84,182.45,614.84,169.83z"/>
		<path class="st1" d="M684.31,203.05l-12.81-18.51h-0.76h-13.38v18.51h-15.38v-66.44h28.76c17.75,0,28.85,9.21,28.85,24.11
			c0,9.97-5.03,17.27-13.66,20.98l14.9,21.36H684.31z M669.88,149.14h-12.53v23.16h12.53c9.4,0,14.15-4.37,14.15-11.58
			C684.02,153.41,679.27,149.14,669.88,149.14z"/>
		<path class="st1" d="M706.51,196.5l5.22-11.58c5.6,4.08,13.95,6.93,21.92,6.93c9.11,0,12.81-3.04,12.81-7.12
			c0-12.43-38.63-3.89-38.63-28.57c0-11.29,9.11-20.69,28-20.69c8.35,0,16.89,1.99,23.06,5.89l-4.74,11.67
			c-6.17-3.51-12.53-5.22-18.41-5.22c-9.11,0-12.63,3.42-12.63,7.59c0,12.24,38.63,3.8,38.63,28.19c0,11.1-9.21,20.59-28.19,20.59
			C723.02,204.19,712.39,201.06,706.51,196.5z"/>
	</g>
</g>
</svg>
