<?xml version="1.0" encoding="utf-8"?>
<!-- Generator: Adobe Illustrator 25.0.0, SVG Export Plug-In . SVG Version: 6.00 Build 0)  -->
<svg version="1.1" id="Layer_1" xmlns="http://www.w3.org/2000/svg" xmlns:xlink="http://www.w3.org/1999/xlink" x="0px" y="0px"
	 viewBox="0 0 1653.19 999.39" style="enable-background:new 0 0 1653.19 999.39;" xml:space="preserve">
<style type="text/css">
	.st0{fill:#053D5D;}
	.st1{fill:#86C542;}
</style>
<g>
	<g>
		<path class="st0" d="M1137.78,677.81c-7.05,7.52-14.96,14.18-22.53,21.11c-3.78,3.48-7.97,6.49-11.93,9.75
			c-4.08,3.12-7.87,6.58-12.16,9.41c-33.19,23.96-69.25,43.92-107.84,56.52c-38.34,12.99-78.41,20.75-118.65,21.19
			c-20.1,0.49-40.17-0.67-60.04-3.01c-19.88-2.48-39.45-6.75-58.63-12.22c-19.21-5.39-37.81-12.76-55.81-21.18
			c-9.05-4.12-17.8-8.85-26.56-13.54l-12.82-7.58c-4.29-2.51-8.33-5.4-12.51-8.08c-16.45-11.1-32.16-23.3-46.72-36.77
			c-14.5-13.52-27.98-28.09-40.32-43.55c-49.3-61.93-78.9-138.96-82.94-217.84c-4.69-78.91,16.03-158.8,58.31-225.69
			c20.81-33.67,47.34-63.74,77.53-89.53c15.22-12.76,31.46-24.28,48.39-34.71c16.85-10.58,34.72-19.54,53.11-27.23
			c73.6-30.73,157.4-38.17,236.47-20.42c79.31,17.13,153.23,60.2,209.85,121.1c-49.83-66.75-123.11-116.8-205-140.19
			c-10.16-3.27-20.66-5.14-31.04-7.62l-15.78-2.68l-7.9-1.29l-7.96-0.88c-5.31-0.56-10.62-1.25-15.95-1.69l-16.02-0.86
			c-5.35-0.4-10.7-0.34-16.05-0.34c-5.36,0.06-10.73-0.15-16.08,0.24c-21.47,0.49-42.83,3.57-63.94,7.69
			c-21.14,4.13-41.89,10.24-62.1,17.81c-20.21,7.57-39.96,16.57-58.72,27.37c-18.77,10.78-36.7,23.04-53.64,36.56
			c-33.6,27.37-63.41,59.66-87.16,96.14c-24.06,36.29-41.63,76.77-53.14,118.81c-5.49,21.11-9.36,42.62-11.72,64.29
			c-2.1,21.71-2.56,43.53-1.54,65.31c2.63,43.51,11.67,86.74,27.65,127.34c7.84,20.35,17.47,39.99,28.55,58.73
			c11.1,18.72,23.32,36.83,37.38,53.45c55.38,67.03,132.07,116.24,216.03,136.94c67.47,17.22,138.89,16.13,205.31-1.83l43.91,37.7
			l14.66-58.55l3.11-1.47l14.4-6.82l13.96-7.66c4.66-2.53,9.31-5.07,13.72-8.02l13.41-8.5c4.44-2.87,8.62-6.13,12.93-9.17
			c8.74-5.94,16.68-12.94,24.8-19.64c31.96-27.47,59-60.18,80.41-95.8C1165.63,647.3,1152.73,663.53,1137.78,677.81z"/>
		<path class="st0" d="M1087.79,271.86c-12.8,0-24.26,5.62-32.14,14.48l-38.9-15.93c0.04-0.73,0.11-1.45,0.11-2.19
			c0-23.78-19.27-43.05-43.05-43.05c-23.77,0-43.04,19.27-43.04,43.05c0,9.86,3.35,18.92,8.93,26.18l-72.03,110.3
			c-3.29-0.81-6.71-1.28-10.25-1.28c-9.11,0-17.55,2.85-24.51,7.68l-46.33-33.58c1.16-3.9,1.81-8.02,1.81-12.3
			c0-23.77-19.28-43.04-43.05-43.04c-23.77,0-43.04,19.27-43.04,43.04c0,5.55,1.09,10.83,3,15.7l-54.47,46.95
			c-6.28-3.59-13.53-5.66-21.28-5.66c-23.78,0-43.05,19.28-43.05,43.05c0,23.77,19.27,43.05,43.05,43.05
			c23.77,0,43.04-19.28,43.04-43.05c0-5.61-1.11-10.96-3.06-15.88l54.37-46.86c6.32,3.64,13.63,5.76,21.44,5.76
			c9.11,0,17.55-2.85,24.51-7.68l46.32,33.58c-1.16,3.9-1.81,8.02-1.81,12.3c0,23.78,19.28,43.05,43.05,43.05
			s43.04-19.27,43.04-43.05c0-9.86-3.35-18.92-8.93-26.18l72.03-110.3c3.29,0.81,6.71,1.28,10.26,1.28
			c12.8,0,24.26-5.62,32.14-14.48l38.9,15.93c-0.04,0.73-0.11,1.45-0.11,2.19c0,23.77,19.27,43.05,43.04,43.05
			c23.78,0,43.05-19.28,43.05-43.05C1130.84,291.13,1111.57,271.86,1087.79,271.86z"/>
		<path class="st1" d="M1222.19,362.58c-9.52-67.16-38.88-130.6-82.97-179.42c35.21,55.42,56.31,118.32,58.73,181.74
			c0.77,15.81,0.64,31.65-1,47.3l-2.76,23.41c-0.26,1.94-0.4,3.9-0.74,5.82l-1.29,5.75l-2.56,11.46
			c-2.75,15.41-8.3,30.07-12.79,44.92c-2.62,7.31-6.05,14.32-9.01,21.49l-4.57,10.68l-5.61,10.18c-3.83,6.73-7.3,13.65-11.36,20.21
			l-13.12,19.09c-2.52,4.05-5.53,7.74-8.58,11.4v-247.7c-9.17,9.9-22.24,16.15-36.76,16.15c-15.07,0-28.6-6.68-37.81-17.23v319.04
			c-5.8,3.91-11.37,8.17-17.46,11.59c-7.36,4.41-14.91,8.46-22.56,12.29V306.12l-2.3-0.94c-9.22,8.45-21.3,13.21-33.86,13.21
			c-2.27,0-4.58-0.17-6.91-0.5l-31.5,48.24v351.89c-2.94,0.66-5.89,1.31-8.82,2l-11.14,2.52l-11.34,1.38
			c-2.91,0.33-5.82,0.72-8.72,1.09V479.15c-9.21,10.68-22.8,17.48-37.97,17.48c-14.44,0-27.43-6.17-36.6-15.96v244.58
			c-2.61-0.21-5.23-0.38-7.83-0.75c-10.72-2.03-21.56-3.53-32.19-5.96V417.32l-11.27-8.17c-7.4,4.09-15.67,6.24-24.2,6.24
			c-7.03,0-13.99-1.5-20.41-4.37l-18.69,16.11v264.3c-0.59-0.29-1.18-0.6-1.77-0.88l-10.26-5.1c-3.4-1.73-6.53-3.96-9.81-5.91
			c-6.03-3.79-12.15-7.47-18.17-11.31V499.37c-9.17,9.85-22.19,16.05-36.68,16.05c-15.13,0-28.69-6.76-37.89-17.39v100.39
			c-2.82-3.78-5.59-7.6-8.51-11.32l-7.02-9.22l-6.07-9.85c-3.95-6.62-8.34-13.04-12-19.85c-14.54-27.37-25.27-56.69-32.7-87.08
			c-6.32-30.51-10.27-62.04-8.7-93.71c1.98-63.43,22.43-126.52,57.29-182.18c-43.85,49.07-72.56,112.82-81.68,180.02
			c-1.23,8.39-1.9,16.86-2.43,25.33l-0.36,25.52c0.03,4.26-0.32,8.55,0.06,12.79l1.1,12.76c0.89,8.49,1.18,17.11,2.61,25.54
			c3.17,16.83,6.02,33.86,11.74,50.14c4.41,16.72,11.69,32.37,18.32,48.36c15.28,30.92,33.51,60.84,56.96,86.62l4.18,5.01l4.58,4.63
			l9.25,9.2c6.2,6.11,12.24,12.44,19.21,17.69l20.35,16.45c7.15,4.97,14.5,9.7,21.77,14.55c3.68,2.34,7.21,4.95,11.03,7.06
			l11.6,6.11c7.83,3.89,15.34,8.47,23.45,11.75l24.35,9.84l6.1,2.42l6.3,1.86l12.61,3.7c16.67,5.57,34.12,7.81,51.33,11.06
			c8.65,1.29,17.43,1.57,26.14,2.37l13.1,1c4.36,0.38,8.75-0.03,13.13-0.06l26.25-0.77c8.72-0.75,17.39-2.13,26.09-3.19l13.02-1.73
			l12.81-2.92c8.51-2.05,17.11-3.85,25.54-6.19c16.49-5.93,33.39-10.75,49.01-18.77l11.91-5.51l5.94-2.77l5.68-3.28l22.56-13.35
			c58.45-38.11,106.51-92.17,134.82-155.39l5.52-11.71l4.43-12.17c2.84-8.15,6.11-16.13,8.53-24.38
			c4.12-16.73,9.19-33.2,10.75-50.36l1.75-12.72l0.86-6.35c0.19-2.12,0.19-4.27,0.29-6.41l0.92-25.58
			C1225.72,396.39,1224.65,379.36,1222.19,362.58z"/>
	</g>
	<g>
		<g>
			<path class="st0" d="M21.94,920.59v25.05h43.87v17.6H21.94v34.53H0v-94.78h71.63v17.61H21.94z"/>
			<path class="st0" d="M86.51,902.99h21.94v76.91h47.52v17.87H86.51V902.99z"/>
			<path class="st0" d="M241.67,980.17v17.6h-73.39v-94.78h71.63v17.61h-49.83v20.58h44.01v17.06h-44.01v21.94H241.67z"/>
			<path class="st0" d="M317.89,997.77l-22.88-32.91l-22.48,32.91h-25.18l35.07-48.2l-33.31-46.58h24.92l21.8,30.74l21.39-30.74
				h23.69l-33.04,45.77l35.34,49.02H317.89z"/>
			<path class="st0" d="M351.87,902.99h21.94v94.78h-21.94V902.99z"/>
			<path class="st0" d="M460.32,948.89h20.04v38.45c-10.43,7.85-24.78,12.05-38.32,12.05c-29.79,0-51.72-20.44-51.72-49.01
				s21.93-49.02,52.13-49.02c16.65,0,30.47,5.69,39.67,16.38l-14.08,13c-6.91-7.31-14.89-10.7-24.51-10.7
				c-18.42,0-31.01,12.32-31.01,30.33c0,17.74,12.59,30.33,30.74,30.33c5.96,0,11.51-1.08,17.06-4.06V948.89z"/>
			<path class="st0" d="M500.65,902.99h21.94v76.91h47.52v17.87h-69.46V902.99z"/>
			<path class="st0" d="M574.84,950.38c0-28.17,21.93-49.02,51.86-49.02c29.79,0,51.86,20.72,51.86,49.02s-22.07,49.01-51.86,49.01
				C596.78,999.39,574.84,978.54,574.84,950.38z M656.35,950.38c0-18.01-12.73-30.33-29.65-30.33c-16.92,0-29.65,12.32-29.65,30.33
				c0,18.01,12.73,30.33,29.65,30.33C643.63,980.71,656.35,968.39,656.35,950.38z"/>
			<path class="st0" d="M781.99,971.91c0,16.38-13,25.86-37.91,25.86h-49.02v-94.78h46.31c23.69,0,35.88,9.88,35.88,24.64
				c0,9.48-4.87,16.79-12.59,20.85C775.22,951.87,781.99,959.99,781.99,971.91z M716.86,919.51v22.34h21.8
				c10.7,0,16.52-3.79,16.52-11.24s-5.82-11.1-16.52-11.1H716.86z M759.92,969.6c0-7.99-6.09-11.78-17.47-11.78h-25.59v23.43h25.59
				C753.83,981.25,759.92,977.73,759.92,969.6z"/>
			<path class="st0" d="M872.02,980.17v17.6h-73.39v-94.78h71.63v17.61h-49.83v20.58h44.01v17.06h-44.01v21.94H872.02z"/>
		</g>
		<g>
			<path class="st1" d="M988.32,977.46h-44l-8.4,20.31h-22.48l42.25-94.78h21.67l42.38,94.78h-23.02L988.32,977.46z M981.41,960.8
				l-15.03-36.29l-15.03,36.29H981.41z"/>
			<path class="st1" d="M1029.6,902.99h43.06c31.01,0,52.26,18.69,52.26,47.4s-21.26,47.39-52.26,47.39h-43.06V902.99z
				 M1071.58,979.76c18.82,0,31.14-11.24,31.14-29.38c0-18.15-12.32-29.38-31.14-29.38h-20.04v58.76H1071.58z"/>
			<path class="st1" d="M1229.44,902.99l-41.03,94.78h-21.67l-40.89-94.78h23.69l28.84,67.7l29.25-67.7H1229.44z"/>
			<path class="st1" d="M1237.28,902.99h21.94v94.78h-21.94V902.99z"/>
			<path class="st1" d="M1274.24,988.42l7.45-16.52c7.99,5.82,19.9,9.88,31.28,9.88c13,0,18.28-4.33,18.28-10.15
				c0-17.74-55.11-5.55-55.11-40.76c0-16.11,13-29.52,39.94-29.52c11.91,0,24.1,2.84,32.9,8.4l-6.77,16.65
				c-8.8-5.01-17.87-7.45-26.27-7.45c-13,0-18.01,4.87-18.01,10.83c0,17.47,55.11,5.41,55.11,40.22c0,15.84-13.14,29.38-40.22,29.38
				C1297.8,999.39,1282.63,994.93,1274.24,988.42z"/>
			<path class="st1" d="M1362.1,950.38c0-28.17,21.94-49.02,51.86-49.02c29.79,0,51.86,20.72,51.86,49.02s-22.07,49.01-51.86,49.01
				C1384.03,999.39,1362.1,978.54,1362.1,950.38z M1443.61,950.38c0-18.01-12.73-30.33-29.65-30.33s-29.65,12.32-29.65,30.33
				c0,18.01,12.73,30.33,29.65,30.33S1443.61,968.39,1443.61,950.38z"/>
			<path class="st1" d="M1542.72,997.77l-18.28-26.4h-1.08h-19.09v26.4h-21.94v-94.78h41.03c25.32,0,41.16,13.14,41.16,34.39
				c0,14.22-7.17,24.64-19.49,29.92l21.26,30.47H1542.72z M1522.13,920.86h-17.87v33.04h17.87c13.41,0,20.18-6.23,20.18-16.52
				C1542.31,926.96,1535.54,920.86,1522.13,920.86z"/>
			<path class="st1" d="M1574.38,988.42l7.45-16.52c7.99,5.82,19.9,9.88,31.28,9.88c13,0,18.28-4.33,18.28-10.15
				c0-17.74-55.11-5.55-55.11-40.76c0-16.11,13-29.52,39.94-29.52c11.91,0,24.1,2.84,32.9,8.4l-6.77,16.65
				c-8.8-5.01-17.87-7.45-26.27-7.45c-13,0-18.01,4.87-18.01,10.83c0,17.47,55.11,5.41,55.11,40.22c0,15.84-13.14,29.38-40.22,29.38
				C1597.94,999.39,1582.78,994.93,1574.38,988.42z"/>
		</g>
	</g>
</g>
</svg>
