<?xml version="1.0" encoding="utf-8"?>
<!-- Generator: Adobe Illustrator 25.0.0, SVG Export Plug-In . SVG Version: 6.00 Build 0)  -->
<svg version="1.1" id="Layer_1" xmlns="http://www.w3.org/2000/svg" xmlns:xlink="http://www.w3.org/1999/xlink" x="0px" y="0px"
	 viewBox="0 0 277.02 147.83" style="enable-background:new 0 0 277.02 147.83;" xml:space="preserve">
<style type="text/css">
	.st0{fill:#053D5D;}
	.st1{fill:#86C542;}
	.st2{fill:none;stroke:#565656;stroke-miterlimit:10;}
	.st3{fill:none;stroke:#000000;stroke-miterlimit:10;}
	.st4{fill:#FFFFFF;}
</style>
<g>
	<g>
		<path class="st0" d="M171.81,92.97c-0.75,0.81-1.6,1.52-2.41,2.26c-0.4,0.37-0.85,0.69-1.28,1.04c-0.44,0.33-0.84,0.7-1.3,1.01
			c-3.55,2.56-7.41,4.7-11.54,6.05c-4.1,1.39-8.39,2.22-12.7,2.27c-2.15,0.05-4.3-0.07-6.42-0.32c-2.13-0.27-4.22-0.72-6.27-1.31
			c-2.06-0.58-4.05-1.37-5.97-2.27c-0.97-0.44-1.9-0.95-2.84-1.45l-1.37-0.81c-0.46-0.27-0.89-0.58-1.34-0.86
			c-1.76-1.19-3.44-2.49-5-3.93c-1.55-1.45-2.99-3.01-4.31-4.66c-5.27-6.63-8.44-14.87-8.88-23.31c-0.5-8.44,1.72-16.99,6.24-24.15
			c2.23-3.6,5.07-6.82,8.3-9.58c1.63-1.37,3.37-2.6,5.18-3.71c1.8-1.13,3.72-2.09,5.68-2.91c7.88-3.29,16.84-4.08,25.3-2.18
			c8.49,1.83,16.4,6.44,22.46,12.96c-5.33-7.14-13.17-12.5-21.94-15c-1.09-0.35-2.21-0.55-3.32-0.81l-1.69-0.29l-0.85-0.14
			l-0.85-0.09c-0.57-0.06-1.14-0.13-1.71-0.18l-1.71-0.09c-0.57-0.04-1.14-0.04-1.72-0.04c-0.57,0.01-1.15-0.02-1.72,0.03
			c-2.3,0.05-4.58,0.38-6.84,0.82c-2.26,0.44-4.48,1.1-6.65,1.91c-2.16,0.81-4.28,1.77-6.28,2.93c-2.01,1.15-3.93,2.47-5.74,3.91
			c-3.59,2.93-6.79,6.38-9.33,10.29c-2.57,3.88-4.45,8.22-5.69,12.71c-0.59,2.26-1,4.56-1.25,6.88c-0.22,2.32-0.27,4.66-0.16,6.99
			c0.28,4.66,1.25,9.28,2.96,13.63c0.84,2.18,1.87,4.28,3.06,6.28c1.19,2,2.49,3.94,4,5.72c5.93,7.17,14.13,12.44,23.12,14.65
			c7.22,1.84,14.86,1.73,21.97-0.2l4.7,4.03l1.57-6.27l0.33-0.16l1.54-0.73l1.49-0.82c0.5-0.27,1-0.54,1.47-0.86l1.43-0.91
			c0.48-0.31,0.92-0.66,1.38-0.98c0.93-0.64,1.78-1.38,2.65-2.1c3.42-2.94,6.31-6.44,8.6-10.25
			C174.79,89.71,173.41,91.45,171.81,92.97z"/>
		<path class="st0" d="M166.46,49.54c-1.37,0-2.6,0.6-3.44,1.55l-4.16-1.7c0-0.08,0.01-0.16,0.01-0.23c0-2.54-2.06-4.61-4.61-4.61
			c-2.54,0-4.61,2.06-4.61,4.61c0,1.06,0.36,2.02,0.96,2.8l-7.71,11.8c-0.35-0.09-0.72-0.14-1.1-0.14c-0.97,0-1.88,0.3-2.62,0.82
			l-4.96-3.59c0.12-0.42,0.19-0.86,0.19-1.32c0-2.54-2.06-4.61-4.61-4.61c-2.54,0-4.61,2.06-4.61,4.61c0,0.59,0.12,1.16,0.32,1.68
			l-5.83,5.02c-0.67-0.38-1.45-0.61-2.28-0.61c-2.54,0-4.61,2.06-4.61,4.61c0,2.54,2.06,4.61,4.61,4.61c2.54,0,4.61-2.06,4.61-4.61
			c0-0.6-0.12-1.17-0.33-1.7l5.82-5.01c0.68,0.39,1.46,0.62,2.29,0.62c0.98,0,1.88-0.31,2.62-0.82l4.96,3.59
			c-0.12,0.42-0.19,0.86-0.19,1.32c0,2.54,2.06,4.61,4.61,4.61s4.61-2.06,4.61-4.61c0-1.06-0.36-2.02-0.96-2.8l7.71-11.8
			c0.35,0.09,0.72,0.14,1.1,0.14c1.37,0,2.6-0.6,3.44-1.55l4.16,1.7c0,0.08-0.01,0.15-0.01,0.23c0,2.54,2.06,4.61,4.61,4.61
			c2.54,0,4.61-2.06,4.61-4.61C171.07,51.6,169,49.54,166.46,49.54z"/>
		<path class="st1" d="M180.84,59.24c-1.02-7.19-4.16-13.98-8.88-19.2c3.77,5.93,6.03,12.66,6.28,19.45
			c0.08,1.69,0.07,3.39-0.11,5.06l-0.3,2.5c-0.03,0.21-0.04,0.42-0.08,0.62l-0.14,0.61l-0.27,1.23c-0.29,1.65-0.89,3.22-1.37,4.81
			c-0.28,0.78-0.65,1.53-0.96,2.3l-0.49,1.14l-0.6,1.09c-0.41,0.72-0.78,1.46-1.22,2.16l-1.4,2.04c-0.27,0.43-0.59,0.83-0.92,1.22
			v-26.5c-0.98,1.06-2.38,1.73-3.93,1.73c-1.61,0-3.06-0.71-4.05-1.84V91.8c-0.62,0.42-1.22,0.87-1.87,1.24
			c-0.79,0.47-1.6,0.9-2.41,1.31V53.2l-0.25-0.1c-0.99,0.9-2.28,1.41-3.62,1.41c-0.24,0-0.49-0.02-0.74-0.05l-3.37,5.16v37.65
			c-0.31,0.07-0.63,0.14-0.94,0.21l-1.19,0.27l-1.21,0.15c-0.31,0.03-0.62,0.08-0.93,0.12V71.72c-0.99,1.14-2.44,1.87-4.06,1.87
			c-1.55,0-2.94-0.66-3.92-1.71v26.17c-0.28-0.02-0.56-0.04-0.84-0.08c-1.15-0.22-2.31-0.38-3.44-0.64V65.1l-1.21-0.87
			c-0.79,0.44-1.68,0.67-2.59,0.67c-0.75,0-1.5-0.16-2.18-0.47l-2,1.72v28.28c-0.06-0.03-0.13-0.06-0.19-0.09l-1.1-0.55
			c-0.36-0.18-0.7-0.42-1.05-0.63c-0.65-0.41-1.3-0.8-1.94-1.21V73.88c-0.98,1.05-2.37,1.72-3.92,1.72c-1.62,0-3.07-0.72-4.05-1.86
			v10.74c-0.3-0.4-0.6-0.81-0.91-1.21l-0.75-0.99l-0.65-1.05c-0.42-0.71-0.89-1.4-1.28-2.12c-1.56-2.93-2.7-6.07-3.5-9.32
			c-0.68-3.26-1.1-6.64-0.93-10.03c0.21-6.79,2.4-13.54,6.13-19.49c-4.69,5.25-7.76,12.07-8.74,19.26c-0.13,0.9-0.2,1.8-0.26,2.71
			l-0.04,2.73c0,0.46-0.03,0.91,0.01,1.37l0.12,1.37c0.1,0.91,0.13,1.83,0.28,2.73c0.34,1.8,0.64,3.62,1.26,5.36
			c0.47,1.79,1.25,3.46,1.96,5.17c1.64,3.31,3.59,6.51,6.1,9.27l0.45,0.54l0.49,0.5l0.99,0.98c0.66,0.65,1.31,1.33,2.06,1.89
			l2.18,1.76c0.77,0.53,1.55,1.04,2.33,1.56c0.39,0.25,0.77,0.53,1.18,0.76l1.24,0.65c0.84,0.42,1.64,0.91,2.51,1.26l2.61,1.05
			l0.65,0.26l0.67,0.2l1.35,0.4c1.78,0.6,3.65,0.84,5.49,1.18c0.93,0.14,1.86,0.17,2.8,0.25l1.4,0.11c0.47,0.04,0.94,0,1.4-0.01
			l2.81-0.08c0.93-0.08,1.86-0.23,2.79-0.34l1.39-0.18l1.37-0.31c0.91-0.22,1.83-0.41,2.73-0.66c1.76-0.63,3.57-1.15,5.24-2.01
			l1.27-0.59l0.64-0.3l0.61-0.35l2.41-1.43c6.25-4.08,11.4-9.86,14.43-16.63l0.59-1.25l0.47-1.3c0.3-0.87,0.65-1.73,0.91-2.61
			c0.44-1.79,0.98-3.55,1.15-5.39l0.19-1.36l0.09-0.68c0.02-0.23,0.02-0.46,0.03-0.69l0.1-2.74
			C181.22,62.86,181.1,61.04,180.84,59.24z"/>
	</g>
	<g>
		<g>
			<path class="st0" d="M52.41,118.95v2.68h4.69v1.88h-4.69v3.69h-2.35v-10.14h7.66v1.88H52.41z"/>
			<path class="st0" d="M59.32,117.07h2.35v8.23h5.09v1.91h-7.43V117.07z"/>
			<path class="st0" d="M75.92,125.33v1.88h-7.85v-10.14h7.66v1.88H70.4v2.2h4.71v1.83H70.4v2.35H75.92z"/>
			<path class="st0" d="M84.08,127.21l-2.45-3.52l-2.41,3.52h-2.69l3.75-5.16l-3.56-4.98h2.67l2.33,3.29l2.29-3.29h2.54l-3.54,4.9
				l3.78,5.25H84.08z"/>
			<path class="st0" d="M87.71,117.07h2.35v10.14h-2.35V117.07z"/>
			<path class="st0" d="M99.32,121.98h2.14v4.11c-1.12,0.84-2.65,1.29-4.1,1.29c-3.19,0-5.53-2.19-5.53-5.24s2.35-5.25,5.58-5.25
				c1.78,0,3.26,0.61,4.25,1.75l-1.51,1.39c-0.74-0.78-1.59-1.14-2.62-1.14c-1.97,0-3.32,1.32-3.32,3.25c0,1.9,1.35,3.25,3.29,3.25
				c0.64,0,1.23-0.12,1.83-0.43V121.98z"/>
			<path class="st0" d="M103.63,117.07h2.35v8.23h5.09v1.91h-7.43V117.07z"/>
			<path class="st0" d="M111.57,122.14c0-3.01,2.35-5.25,5.55-5.25c3.19,0,5.55,2.22,5.55,5.25c0,3.03-2.36,5.24-5.55,5.24
				C113.92,127.38,111.57,125.15,111.57,122.14z M120.29,122.14c0-1.93-1.36-3.25-3.17-3.25c-1.81,0-3.17,1.32-3.17,3.25
				c0,1.93,1.36,3.25,3.17,3.25C118.93,125.39,120.29,124.07,120.29,122.14z"/>
			<path class="st0" d="M133.74,124.44c0,1.75-1.39,2.77-4.06,2.77h-5.24v-10.14h4.96c2.54,0,3.84,1.06,3.84,2.64
				c0,1.01-0.52,1.8-1.35,2.23C133.01,122.3,133.74,123.17,133.74,124.44z M126.77,118.84v2.39h2.33c1.14,0,1.77-0.41,1.77-1.2
				s-0.62-1.19-1.77-1.19H126.77z M131.38,124.2c0-0.85-0.65-1.26-1.87-1.26h-2.74v2.51h2.74
				C130.72,125.44,131.38,125.07,131.38,124.2z"/>
			<path class="st0" d="M143.37,125.33v1.88h-7.85v-10.14h7.66v1.88h-5.33v2.2h4.71v1.83h-4.71v2.35H143.37z"/>
		</g>
		<g>
			<path class="st1" d="M155.82,125.04h-4.71l-0.9,2.17h-2.41l4.52-10.14h2.32l4.53,10.14h-2.46L155.82,125.04z M155.08,123.26
				l-1.61-3.88l-1.61,3.88H155.08z"/>
			<path class="st1" d="M160.23,117.07h4.61c3.32,0,5.59,2,5.59,5.07c0,3.07-2.27,5.07-5.59,5.07h-4.61V117.07z M164.72,125.28
				c2.01,0,3.33-1.2,3.33-3.14c0-1.94-1.32-3.14-3.33-3.14h-2.14v6.29H164.72z"/>
			<path class="st1" d="M181.62,117.07l-4.39,10.14h-2.32l-4.38-10.14h2.54l3.09,7.24l3.13-7.24H181.62z"/>
			<path class="st1" d="M182.46,117.07h2.35v10.14h-2.35V117.07z"/>
			<path class="st1" d="M186.41,126.21l0.8-1.77c0.86,0.62,2.13,1.06,3.35,1.06c1.39,0,1.96-0.46,1.96-1.09c0-1.9-5.9-0.59-5.9-4.36
				c0-1.72,1.39-3.16,4.27-3.16c1.27,0,2.58,0.3,3.52,0.9l-0.72,1.78c-0.94-0.54-1.91-0.8-2.81-0.8c-1.39,0-1.93,0.52-1.93,1.16
				c0,1.87,5.9,0.58,5.9,4.3c0,1.69-1.41,3.14-4.3,3.14C188.93,127.38,187.31,126.91,186.41,126.21z"/>
			<path class="st1" d="M195.81,122.14c0-3.01,2.35-5.25,5.55-5.25c3.19,0,5.55,2.22,5.55,5.25c0,3.03-2.36,5.24-5.55,5.24
				C198.16,127.38,195.81,125.15,195.81,122.14z M204.53,122.14c0-1.93-1.36-3.25-3.17-3.25c-1.81,0-3.17,1.32-3.17,3.25
				c0,1.93,1.36,3.25,3.17,3.25C203.17,125.39,204.53,124.07,204.53,122.14z"/>
			<path class="st1" d="M215.14,127.21l-1.96-2.83h-0.12h-2.04v2.83h-2.35v-10.14h4.39c2.71,0,4.4,1.41,4.4,3.68
				c0,1.52-0.77,2.64-2.09,3.2l2.27,3.26H215.14z M212.94,118.98h-1.91v3.54h1.91c1.43,0,2.16-0.67,2.16-1.77
				C215.1,119.63,214.37,118.98,212.94,118.98z"/>
			<path class="st1" d="M218.53,126.21l0.8-1.77c0.86,0.62,2.13,1.06,3.35,1.06c1.39,0,1.96-0.46,1.96-1.09c0-1.9-5.9-0.59-5.9-4.36
				c0-1.72,1.39-3.16,4.27-3.16c1.27,0,2.58,0.3,3.52,0.9l-0.72,1.78c-0.94-0.54-1.91-0.8-2.81-0.8c-1.39,0-1.93,0.52-1.93,1.16
				c0,1.87,5.9,0.58,5.9,4.3c0,1.69-1.41,3.14-4.3,3.14C221.05,127.38,219.43,126.91,218.53,126.21z"/>
		</g>
	</g>
</g>
</svg>
